#!OML:ASF I:\Actors\actors\Patient Classification 2\Patient 1\Session 1\actor1.ASF
:FULLY-SPECIFIED
:DEGREES
631
root -0.4491 18.8684 4.84043 14.0796 27.6255 0.974054
lowerback 22.5713 5.60354 21.1777
upperback 0.906627 14.1633 11.0931
thorax -9.62239 5.95789 -2.98395
lowerneck -7.94129 -15.5975 -12.8986
upperneck -2.49082 -20.6108 28.7128
head 5.317 -9.50806 9.02901
rclavicle 3.02153e-014 2.8625e-014
rhumerus -46.3478 -5.88873 -8.72676
rradius 39.3139
rwrist 28.6184
rhand -4.16665 -45.7732
rfingers 7.12502
rthumb 21.5939 -74.5892
lclavicle 3.02153e-014 2.8625e-014
lhumerus -21.3524 55.5738 13.7712
lradius 116.582
lwrist 74.9996
lhand -41.5126 -60.3498
lfingers 7.12502
lthumb -14.4256 -30.8712
rfemur 0 0 0
rtibia 0
rfoot 0 0
rtoes 0
lfemur -29.7532 -14.1568 -11.0543
ltibia 24.7359
lfoot -9.92277 -1.54242
ltoes -56.5174
632
root -0.439083 18.8705 4.83303 13.7336 27.1052 0.740084
lowerback 22.5454 5.44475 21.2906
upperback 0.842672 13.974 10.9822
thorax -9.66028 5.853 -3.11684
lowerneck -7.46578 -15.7289 -13.1919
upperneck -2.22888 -20.8814 28.7474
head 5.40575 -9.65879 9.06303
rclavicle -3.33958e-014 -1.59028e-014
rhumerus -47.7986 -5.09362 -11.011
rradius 39.4552
rwrist 24.3996
rhand -3.95914 -46.5492
rfingers 7.12502
rthumb 21.7932 -75.3422
lclavicle -3.33958e-014 -1.59028e-014
lhumerus -9.3853 54.9177 20.6036
lradius 118.268
lwrist 73.8649
lhand -40.2366 -59.4875
lfingers 7.12502
lthumb -13.1959 -29.9251
rfemur 0 0 0
rtibia 0
rfoot 0 0
rtoes 0
lfemur -29.3442 -13.7111 -11.0674
ltibia 24.7167
lfoot -9.98233 -1.48648
ltoes -56.4962
633
root -0.430686 18.8709 4.82925 13.2561 26.5231 0.561267
lowerback 22.6546 5.29359 21.2466
upperback 0.881428 13.7745 10.897
thorax -9.69292 5.75638 -3.1608
lowerneck -7.14187 -15.7207 -13.3475
upperneck -1.98341 -20.9331 28.5191
head 5.41485 -9.70225 9.02344
rclavicle -5.40694e-014 -1.24042e-013
rhumerus -49.3585 -4.93804 -13.2193
rradius 39.8038
rwrist 19.6989
rhand -3.97803 -47.2382
rfingers 7.12502
rthumb 21.7751 -76.0333
lclavicle -5.40694e-014 -1.24042e-013
lhumerus 4.08388 53.2884 28.5359
lradius 118.629
lwrist 72.6606
lhand -38.2145 -57.3511
lfingers 7.12502
lthumb -11.2461 -27.6726
rfemur 0 0 0
rtibia 0
rfoot 0 0
rtoes 0
lfemur -28.7055 -13.348 -11.1482
ltibia 24.6566
lfoot -10.11 -1.36284
ltoes -56.5473
634
root -0.432256 18.8713 4.83589 13.016 25.7363 0.826228
lowerback 22.6867 5.25182 20.5593
upperback 0.990283 13.5086 10.7563
thorax -9.72669 5.66486 -2.93899
lowerneck -7.13784 -15.7902 -13.4786
upperneck -1.4809 -21.111 28.0129
head 5.53612 -9.77337 8.83945
rclavicle 4.77083e-015 5.725e-014
rhumerus -50.8449 -5.1362 -15.4869
rradius 40.3035
rwrist 14.7972
rhand -4.11373 -48.1139
rfingers 7.12502
rthumb 21.6447 -76.924
lclavicle 4.77083e-015 5.725e-014
lhumerus 16.6091 50.3266 35.5766
lradius 118.806
lwrist 71.559
lhand -36.0068 -53.7142
lfingers 7.12502
lthumb -9.11637 -23.9313
rfemur 0 0 0
rtibia 0
rfoot 0 0
rtoes 0
lfemur -28.0631 -13.1069 -11.6036
ltibia 24.5668
lfoot -10.2857 -0.993351
ltoes -56.6416
635
root -0.438537 18.8721 4.84298 13.0106 24.8024 1.33731
lowerback 22.5917 5.24701 19.4788
upperback 1.08001 13.1519 10.5358
thorax -9.78264 5.54705 -2.57901
lowerneck -7.09735 -15.858 -13.7383
upperneck -0.797743 -21.3339 27.7119
head 5.76112 -9.85274 8.73497
rclavicle 7.4743e-014 1.7175e-013
rhumerus -52.0737 -5.73079 -17.8186
rradius 40.7216
rwrist 10.5929
rhand -4.14479 -49.2639
rfingers 7.12502
rthumb 21.6149 -78.0775
lclavicle 7.4743e-014 1.7175e-013
lhumerus 27.5078 46.3904 40.7833
lradius 118.361
lwrist 70.802
lhand -32.7821 -47.5368
lfingers 7.12502
lthumb -6.00386 -17.6419
rfemur 0 0 0
rtibia 0
rfoot 0 0
rtoes 0
lfemur -27.5377 -12.8187 -12.2757
ltibia 24.4175
lfoot -10.4119 -0.498036
ltoes -56.7723
636
root -0.440816 18.8736 4.84269 12.9075 23.8386 1.61976
lowerback 22.489 5.15693 18.5395
upperback 1.18155 12.7242 10.3488
thorax -9.80578 5.39353 -2.22171
lowerneck -7.05923 -15.7502 -13.624
upperneck 0.0636212 -21.3165 26.8408
head 5.86165 -9.82535 8.43857
rclavicle 1.09729e-013 3.49861e-014
rhumerus -52.971 -6.3984 -20.2301
rradius 41.1197
rwrist 7.41899
rhand -3.93517 -50.2474
rfingers 7.12502
rthumb 21.8162 -79.0377
lclavicle 1.09729e-013 3.49861e-014
lhumerus 36.6058 41.9732 44.2144
lradius 117.198
lwrist 70.8589
lhand -27.1694 -39.1324
lfingers 7.12502
lthumb -0.583725 -9.15349
rfemur 0 0 0
rtibia 0
rfoot 0 0
rtoes 0
lfemur -27.0045 -12.409 -12.7498
ltibia 24.2311
lfoot -10.4839 -0.0514645
ltoes -56.8581
637
root -0.438264 18.8762 4.83881 12.6466 22.8474 1.69171
lowerback 22.4172 4.96584 17.7124
upperback 1.40099 12.1923 10.2574
thorax -9.71623 5.20291 -1.77862
lowerneck -7.45996 -15.5358 -13.1861
upperneck 1.08982 -21.1102 25.3938
head 5.93363 -9.68892 7.91566
rclavicle 8.26944e-014 -9.54166e-015
rhumerus -53.3461 -6.99121 -22.7315
rradius 41.4833
rwrist 5.48339
rhand -3.49097 -50.5573
rfingers 7.12502
rthumb 22.2427 -79.2974
lclavicle 8.26944e-014 -9.54166e-015
lhumerus 43.9032 37.4993 46.3024
lradius 115.404
lwrist 71.8847
lhand -19.6304 -30.6128
lfingers 7.12502
lthumb 6.6966 -0.738682
rfemur 0 0 0
rtibia 0
rfoot 0 0
rtoes 0
lfemur -26.4001 -11.976 -13.0363
ltibia 24.0755
lfoot -10.6121 0.377897
ltoes -56.7836
638
root -0.435527 18.878 4.83433 12.4092 21.779 1.83025
lowerback 22.3533 4.72693 16.6659
upperback 1.69723 11.5439 10.2209
thorax -9.59961 4.97312 -1.12891
lowerneck -8.65078 -15.3017 -12.5106
upperneck 2.45863 -20.8341 23.3753
head 6.13858 -9.47603 7.13736
rclavicle 9.70069e-014 -1.59028e-014
rhumerus -53.2741 -7.55178 -25.3033
rradius 41.7665
rwrist 4.81743
rhand -3.0258 -50.2587
rfingers 7.12502
rthumb 22.6892 -78.9448
lclavicle 9.70069e-014 -1.59028e-014
lhumerus 49.2463 33.134 46.951
lradius 113.177
lwrist 72.8726
lhand -9.83594 -25.103
lfingers 7.12502
lthumb 16.1416 4.24479
rfemur 0 0 0
rtibia 0
rfoot 0 0
rtoes 0
lfemur -25.8253 -11.6351 -13.3711
ltibia 23.9823
lfoot -10.798 0.991061
ltoes -56.6362
639
root -0.433372 18.8795 4.82804 12.2349 20.6429 1.98554
lowerback 22.2337 4.46222 15.323
upperback 2.04775 10.7919 10.3072
thorax -9.46298 4.71262 -0.149415
lowerneck -9.93258 -14.902 -11.6608
upperneck 3.86581 -20.2821 20.9787
head 6.27747 -9.16213 6.26858
rclavicle -3.49861e-014 6.36111e-015
rhumerus -52.9036 -7.71479 -28.0281
rradius 42.2868
rwrist 4.44205
rhand -3.13102 -49.6182
rfingers 7.12502
rthumb 22.5882 -78.3167
lclavicle -3.49861e-014 6.36111e-015
lhumerus 52.8445 29.0816 46.052
lradius 110.535
lwrist 72.366
lhand -0.0838594 -23.1933
lfingers 7.12502
lthumb 25.51 5.11901
rfemur 0 0 0
rtibia 0
rfoot 0 0
rtoes 0
lfemur -25.3373 -11.2013 -13.7329
ltibia 23.922
lfoot -10.9388 1.63171
ltoes -56.5244
640
root -0.430658 18.8805 4.82368 12.069 19.4915 2.13049
lowerback 22.0291 4.16166 13.7512
upperback 2.46784 9.9347 10.5167
thorax -9.24008 4.41848 1.13884
lowerneck -10.6536 -14.2608 -10.9353
upperneck 4.82967 -19.3501 18.782
head 6.19914 -8.73841 5.58898
rclavicle -9.38264e-014 -2.8625e-014
rhumerus -52.3934 -7.39646 -30.8686
rradius 43.2123
rwrist 3.8601
rhand -3.81638 -48.8939
rfingers 7.12502
rthumb 21.9303 -77.6709
lclavicle -9.38264e-014 -2.8625e-014
lhumerus 55.2744 25.433 44.0608
lradius 107.539
lwrist 70.1126
lhand 8.8396 -21.5008
lfingers 7.12502
lthumb 34.0249 5.27742
rfemur 0 0 0
rtibia 0
rfoot 0 0
rtoes 0
lfemur -24.8448 -10.6125 -14.1127
ltibia 23.8501
lfoot -11.1105 2.1213
ltoes -56.4619
641
root -0.426505 18.8803 4.81959 11.9321 18.3635 2.29661
lowerback 21.9814 3.78386 12.4831
upperback 2.78326 9.08744 10.5749
thorax -9.10238 4.09185 2.10441
lowerneck -11.3875 -13.5916 -10.291
upperneck 5.79735 -18.3768 16.7478
head 6.18343 -8.29899 4.97099
rclavicle -2.38542e-014 -6.99722e-014
rhumerus -52.3042 -6.80526 -33.7618
rradius 44.5411
rwrist 3.01391
rhand -4.58833 -48.3738
rfingers 7.12502
rthumb 21.1889 -77.2358
lclavicle -2.38542e-014 -6.99722e-014
lhumerus 57.2902 21.753 41.695
lradius 104.465
lwrist 67.3887
lhand 18.2197 -19.266
lfingers 7.12502
lthumb 42.8731 5.02464
rfemur 0 0 0
rtibia 0
rfoot 0 0
rtoes 0
lfemur -24.3709 -10.1277 -14.4846
ltibia 23.7543
lfoot -11.3587 2.68144
ltoes -56.5119
642
root -0.41979 18.88 4.8137 11.897 17.2835 2.55741
lowerback 21.7504 3.36793 10.951
upperback 3.15632 8.1021 10.7046
thorax -8.81412 3.71499 3.35944
lowerneck -12.2734 -12.7567 -9.36735
upperneck 6.88876 -17.1632 14.3254
head 6.17329 -7.7634 4.21262
rclavicle -3.49861e-014 3.18055e-015
rhumerus -52.1482 -5.87376 -36.5943
rradius 46.1142
rwrist 1.77575
rhand -5.28428 -47.9321
rfingers 7.12502
rthumb 20.5202 -76.8676
lclavicle -3.49861e-014 3.18055e-015
lhumerus 57.9423 18.6479 38.7688
lradius 102.147
lwrist 65.7134
lhand 27.4989 -15.9238
lfingers 7.12502
lthumb 51.4449 4.50587
rfemur 0 0 0
rtibia 0
rfoot 0 0
rtoes 0
lfemur -23.9852 -9.75723 -14.9207
ltibia 23.6343
lfoot -11.5954 3.24035
ltoes -56.5293
643
root -0.412242 18.88 4.80977 11.9252 16.2291 2.90525
lowerback 21.5263 2.89244 9.85161
upperback 3.11804 7.19946 10.7038
thorax -8.87267 3.32867 4.2241
lowerneck -11.9225 -11.901 -9.14556
upperneck 7.91624 -15.8937 12.1194
head 6.05956 -7.27558 3.68396
rclavicle -6.52014e-014 -1.62208e-013
rhumerus -53.0218 -4.43552 -39.0154
rradius 47.958
rwrist 0.323541
rhand -5.86758 -47.3742
rfingers 7.12502
rthumb 19.9597 -76.3691
lclavicle -6.52014e-014 -1.62208e-013
lhumerus 58.6148 14.7575 35.2491
lradius 98.857
lwrist 64.2771
lhand 35.3634 -12.8324
lfingers 7.12502
lthumb 58.4533 2.47517
rfemur 0 0 0
rtibia 0
rfoot 0 0
rtoes 0
lfemur -23.6409 -9.23824 -15.4672
ltibia 23.4943
lfoot -11.7439 3.54147
ltoes -56.3899
644
root -0.405592 18.8797 4.8066 11.978 15.1243 3.19268
lowerback 21.4178 2.4591 8.76883
upperback 3.28726 6.3372 10.6641
thorax -8.71762 2.96458 5.0297
lowerneck -9.82879 -11.2945 -9.72609
upperneck 6.5855 -14.9661 11.7425
head 5.21055 -6.98776 3.90525
rclavicle 7.95139e-015 4.45278e-014
rhumerus -53.6899 -3.65841 -41.3067
rradius 49.7666
rwrist -0.989428
rhand -6.32557 -46.9593
rfingers 7.12502
rthumb 19.5194 -75.9995
lclavicle 7.95139e-015 4.45278e-014
lhumerus 58.4977 11.4712 31.3447
lradius 96.3328
lwrist 62.1631
lhand 40.9316 -11.1756
lfingers 7.12502
lthumb 63.1628 -1.20898
rfemur 0 0 0
rtibia 0
rfoot 0 0
rtoes 0
lfemur -23.3582 -8.52854 -15.9661
ltibia 23.3401
lfoot -11.8334 3.76021
ltoes -56.2736
645
root -0.395985 18.8789 4.79914 12.0846 13.9366 3.38892
lowerback 21.3819 2.0657 7.69337
upperback 3.54589 5.52779 10.6168
thorax -8.47156 2.62077 5.81265
lowerneck -11.744 -10.2735 -8.60361
upperneck 8.10018 -13.3638 8.55489
head 5.50662 -6.28036 2.835
rclavicle -7.95139e-015 -1.11319e-013
rhumerus -54.2163 -3.10797 -43.5356
rradius 51.5005
rwrist -2.24292
rhand -6.66604 -46.9731
rfingers 7.12502
rthumb 19.192 -76.0462
lclavicle -7.95139e-015 -1.11319e-013
lhumerus 58.5878 8.60871 27.4437
lradius 93.5977
lwrist 58.95
lhand 44.0711 -10.1301
lfingers 7.12502
lthumb 65.6716 -4.11247
rfemur 0 0 0
rtibia 0
rfoot 0 0
rtoes 0
lfemur -23.1902 -7.77336 -16.3718
ltibia 23.192
lfoot -11.9336 4.08362
ltoes -56.2682
